<svg height="512" viewBox="0 0 512 512" width="512" xmlns="http://www.w3.org/2000/svg"><g><g><path d="m360 456h-272a72 72 0 0 1 0-144h408v32h-24v80h24v32h-56" fill="#5f4d37"/><path d="m440 424h32v-80h-384a40 40 0 0 0 0 80h272" fill="#ffeb99"/><path d="m440 488-40-24-40 24v-120h80z" fill="#ff5023"/><path d="m152 312h-104v-32h24v-80h-24v-32h376a72 72 0 0 1 0 144z" fill="#a0815c"/><path d="m72 280h352a40 40 0 0 0 0-80h-352z" fill="#ffeb99"/><path d="m72 240h296" fill="#c6c5ca"/><path d="m392 240h8" fill="#c6c5ca"/><path d="m360 168h-272a72 72 0 0 1 0-144h376v32h-24v80h24v32z" fill="#ff9811"/><path d="m440 136v-80h-352a40 40 0 0 0 0 80z" fill="#ffeb99"/><g fill="#c6c5ca"><path d="m440 96h-296"/><path d="m120 96h-8"/></g></g><g><path d="m496 304h-24.06a79.954 79.954 0 0 0 8.63-120.57 81.249 81.249 0 0 0 -11.32-9.4 7.989 7.989 0 0 0 2.75-6.03v-32a8 8 0 0 0 -8-8h-16v-64h16a8 8 0 0 0 8-8v-32a8 8 0 0 0 -8-8h-376a79.971 79.971 0 0 0 -45.22 145.95 7.958 7.958 0 0 0 -2.78 6.05v32a8 8 0 0 0 8 8h16v64h-16a8 8 0 0 0 -8 8v32a7.989 7.989 0 0 0 2.75 6.03 81.249 81.249 0 0 0 -11.32 9.4 80 80 0 0 0 56.57 136.57h264v24a8 8 0 0 0 12.12 6.86l35.88-21.53 35.88 21.53a8 8 0 0 0 12.12-6.86v-24h48a8 8 0 0 0 8-8v-32a8 8 0 0 0 -8-8h-16v-64h16a8 8 0 0 0 8-8v-32a8 8 0 0 0 -8-8zm-472-208a64.017 64.017 0 0 1 64-64h368v16h-368a48 48 0 0 0 0 96h368v16h-368a64.072 64.072 0 0 1 -64-64zm120 8h288v24h-344a32 32 0 0 1 0-64h344v24h-288a8 8 0 0 0 0 16zm-88 184h368a48 48 0 0 0 0-96h-368v-16h368a64 64 0 0 1 0 128h-368zm312-56h-288v-24h344a32 32 0 0 1 0 64h-344v-24h288a8 8 0 0 0 0-16zm64 241.87-27.88-16.73a8.015 8.015 0 0 0 -8.24 0l-27.88 16.73v-97.87h64zm8-113.87h-80a8 8 0 0 0 -8 8v48h-264a32 32 0 0 1 0-64h376v64h-16v-48a8 8 0 0 0 -8-8zm48 72v16h-40v-16zm0-96h-400a48 48 0 0 0 0 96h264v16h-264a64 64 0 0 1 0-128h400z"/><path d="m144 392h184a8 8 0 0 0 0-16h-184a8 8 0 0 0 0 16z"/><path d="m112 392h8a8 8 0 0 0 0-16h-8a8 8 0 0 0 0 16z"/><path d="m392 248h8a8 8 0 0 0 0-16h-8a8 8 0 0 0 0 16z"/><path d="m120 88h-8a8 8 0 0 0 0 16h8a8 8 0 0 0 0-16z"/></g></g></svg>